<svg xmlns="http://www.w3.org/2000/svg" preserveAspectRatio="none" viewBox="0 0 1440 320">
    <defs>
        <filter id="a" x="-50%" y="-50%" width="200%" height="200%">
            <feOffset dy="20" />
            <feGaussianBlur stdDeviation="8" result="offset-blur" />
            <feComposite operator="out" in="SourceGraphic" in2="offset-blur" result="inverse" />
            <feFlood flood-color="#000" flood-opacity=".5" result="color" />
            <feComposite operator="in" in="color" in2="inverse" result="shadow" />
            <feComposite in="shadow" in2="SourceGraphic" />
        </filter>
    </defs>
    <g transform="rotate(180, 720, 160)">
        <path fill="#1E293B" filter="url(#a)"
            d="M0,192L24,186.7C48,181,96,171,144,149.3C192,128,240,96,288,112C336,128,384,192,432,208C480,224,528,192,576,192C624,192,672,224,720,218.7C768,213,816,171,864,160C912,149,960,171,1008,197.3C1056,224,1104,256,1152,229.3C1200,203,1248,117,1296,112C1344,107,1392,181,1416,218.7L1440,256L1440,320L1416,320C1392,320,1344,320,1296,320C1248,320,1200,320,1152,320C1104,320,1056,320,1008,320C960,320,912,320,864,320C816,320,768,320,720,320C672,320,624,320,576,320C528,320,480,320,432,320C384,320,336,320,288,320C240,320,192,320,144,320C96,320,48,320,24,320L0,320Z" />
    </g>
</svg>